# xmcd CD database file
#
# Track frame offsets:
#	150
#	12734
#	29522
#	35793
#	47501
#	64063
#	83117
#	99510
#	109887
#	115322
#	128007
#	142441
#	156961
#	162622
#	178403
#	192401
#	205271
#	217197
#	218727
#	230116
#	238853
#	254766
#	257308
#	262094
#	284439
#	300081
#	317598
#
# Disc length: 4548 seconds
#
# Revision: 1
# Processed by: cddbd v1.5.2PL0 Copyright (c) Steve Scherf et al.
# Submitted via: CDex 1.51
#
DISCID=ab11c21b
DTITLE=Art Tatum - Live Performances, 1934-1956, vol. 9
DYEAR=1944
DGENRE=Jazz
TTITLE0=Sweet Lorraine
TTITLE1=I Know That You know
TTITLE2=More Than You Know
TTITLE3=Tea For Two
TTITLE4=St. Louis Blues
TTITLE5=Goin' Home
TTITLE6=Ternderly
TTITLE7=Sweet Lorraine
TTITLE8=You Took Advantage Of Me
TTITLE9=Don't Take Your Love From Me
TTITLE10=I'll See You In My Dreams
TTITLE11=Someone To Watch Over Me
TTITLE12=My Wonderful One - Art's Boogie
TTITLE13=If You Hadn't Gone Away
TTITLE14=Somebody Loves Me
TTITLE15=Zigeuner
TTITLE16=I'll See You Again
TTITLE17=Blue Skies
TTITLE18=Jitterbug Waltz
TTITLE19=Let Me Call You Sweetheart
TTITLE20=If You Hadn't Gone Away
TTITLE21=Can't We Be Friends
TTITLE22=I'll See You In My Dreams
TTITLE23=Ain't Misbehavin'
TTITLE24=Aunt Hagar's Blues
TTITLE25=What Is This Thing Called Love
TTITLE26=I'm In The Mood For Love
EXTD=YEAR: 1944
EXTT0=
EXTT1=
EXTT2=
EXTT3=
EXTT4=
EXTT5=
EXTT6=
EXTT7=
EXTT8=
EXTT9=
EXTT10=
EXTT11=
EXTT12=
EXTT13=
EXTT14=
EXTT15=
EXTT16=
EXTT17=
EXTT18=
EXTT19=
EXTT20=
EXTT21=
EXTT22=
EXTT23=
EXTT24=
EXTT25=
EXTT26=
PLAYORDER=
